<svg xmlns="http://www.w3.org/2000/svg" xmlns:xlink="http://www.w3.org/1999/xlink" width="2000" zoomAndPan="magnify" viewBox="0 0 1500 1499.999933" height="2000" preserveAspectRatio="xMidYMid meet" version="1.0"><defs><clipPath id="305d114b8a"><path d="M 36.355469 155.980469 L 1462.113281 155.980469 L 1462.113281 1342.527344 L 36.355469 1342.527344 Z M 36.355469 155.980469 " clip-rule="nonzero"/></clipPath><clipPath id="8c6e4d5849"><path d="M 55.058594 177 L 1445 177 L 1445 1332 L 55.058594 1332 Z M 55.058594 177 " clip-rule="nonzero"/></clipPath><clipPath id="0c7ede775f"><path d="M 1451.140625 1019.683594 L 62.980469 1338.523438 L -145.769531 429.636719 L 1242.394531 110.808594 Z M 1451.140625 1019.683594 " clip-rule="nonzero"/></clipPath><clipPath id="898781d8b6"><path d="M 947.535156 178.53125 L 150.144531 361.671875 C 124.300781 367.609375 105.5 389.933594 104.054688 416.410156 L 55.832031 1296.007812 C 55.253906 1306.582031 59.683594 1316.816406 67.777344 1323.632812 C 75.875 1330.453125 86.710938 1333.066406 97.03125 1330.703125 L 1418.144531 1027.269531 C 1428.464844 1024.898438 1437.066406 1017.816406 1441.378906 1008.140625 C 1445.695312 998.476562 1445.210938 987.34375 1440.074219 978.078125 L 1012.894531 207.667969 C 1000.03125 184.480469 973.378906 172.589844 947.535156 178.53125 Z M 947.535156 178.53125 " clip-rule="nonzero"/></clipPath><clipPath id="c9df8dc3ec"><path d="M 1451.140625 1019.683594 L 62.980469 1338.523438 L -145.769531 429.636719 L 1242.394531 110.808594 Z M 1451.140625 1019.683594 " clip-rule="nonzero"/></clipPath><clipPath id="0ba89d91f2"><path d="M 947.535156 178.53125 L 150.144531 361.671875 C 124.300781 367.609375 105.5 389.933594 104.054688 416.410156 L 55.832031 1296.007812 C 55.253906 1306.582031 59.683594 1316.816406 67.777344 1323.632812 C 75.875 1330.453125 86.710938 1333.066406 97.03125 1330.703125 L 1418.144531 1027.269531 C 1428.464844 1024.898438 1437.066406 1017.816406 1441.378906 1008.140625 C 1445.695312 998.476562 1445.210938 987.34375 1440.074219 978.078125 L 1012.894531 207.667969 C 1000.03125 184.480469 973.378906 172.589844 947.535156 178.53125 Z M 947.535156 178.53125 " clip-rule="nonzero"/></clipPath><clipPath id="3d2948c117"><path d="M 55.058594 177 L 1445 177 L 1445 1332 L 55.058594 1332 Z M 55.058594 177 " clip-rule="nonzero"/></clipPath><clipPath id="93591d1f3e"><path d="M 1461.789062 1017.238281 L 52.964844 1340.820312 L -155.929688 431.277344 L 1252.890625 107.699219 Z M 1461.789062 1017.238281 " clip-rule="nonzero"/></clipPath><clipPath id="f4ae8477d2"><path d="M 1461.777344 1017.246094 L 54.300781 1340.511719 L -156.203125 424.003906 L 1251.285156 100.730469 Z M 1461.777344 1017.246094 " clip-rule="nonzero"/></clipPath><clipPath id="a5480e5683"><path d="M 947.535156 178.546875 L 150.164062 361.691406 C 124.320312 367.621094 105.519531 389.941406 104.074219 416.417969 L 55.863281 1296.007812 C 55.28125 1306.582031 59.699219 1316.808594 67.796875 1323.625 C 75.90625 1330.453125 86.730469 1333.066406 97.050781 1330.695312 L 1418.144531 1027.269531 C 1428.453125 1024.898438 1437.066406 1017.816406 1441.371094 1008.140625 C 1445.6875 998.476562 1445.199219 987.34375 1440.0625 978.078125 L 1012.894531 207.6875 C 1000.042969 184.496094 973.386719 172.609375 947.535156 178.546875 Z M 947.535156 178.546875 " clip-rule="nonzero"/></clipPath><clipPath id="ab41076e14"><path d="M 127 193 L 1027 193 L 1027 1075 L 127 1075 Z M 127 193 " clip-rule="nonzero"/></clipPath><clipPath id="f6efb6607f"><path d="M 694.648438 -113.667969 L 1308.226562 562.835938 L 696.160156 1117.984375 L 82.582031 441.476562 Z M 694.648438 -113.667969 " clip-rule="nonzero"/></clipPath><clipPath id="b2ad2bcdd7"><path d="M 1021.8125 327.488281 L 801.734375 1002.902344 C 790.257812 1038.132812 760.894531 1064.589844 724.65625 1072.34375 C 688.429688 1080.105469 650.808594 1067.980469 625.910156 1040.53125 L 154.214844 520.472656 C 129.328125 493.023438 120.921875 454.394531 132.164062 419.089844 C 143.410156 383.785156 172.605469 357.132812 208.777344 349.136719 L 902.40625 195.828125 C 938.269531 187.90625 975.628906 199.804688 1000.304688 227.011719 C 1024.988281 254.21875 1033.1875 292.558594 1021.8125 327.488281 Z M 1021.8125 327.488281 " clip-rule="nonzero"/></clipPath><clipPath id="9737b4bb28"><path d="M 694.648438 -113.667969 L 1308.226562 562.835938 L 696.160156 1117.984375 L 82.582031 441.476562 Z M 694.648438 -113.667969 " clip-rule="nonzero"/></clipPath><clipPath id="22a89f9dc6"><path d="M 1021.8125 327.488281 L 801.734375 1002.902344 C 790.257812 1038.132812 760.894531 1064.589844 724.65625 1072.34375 C 688.429688 1080.101562 650.808594 1067.980469 625.910156 1040.53125 L 154.214844 520.472656 C 129.328125 493.023438 120.921875 454.394531 132.164062 419.089844 C 143.410156 383.785156 172.605469 357.132812 208.777344 349.136719 L 902.40625 195.828125 C 938.269531 187.90625 975.628906 199.804688 1000.304688 227.011719 C 1024.988281 254.21875 1033.1875 292.558594 1021.8125 327.488281 Z M 1021.8125 327.488281 " clip-rule="nonzero"/></clipPath><clipPath id="661e4c3389"><path d="M 127 193 L 1027 193 L 1027 1075 L 127 1075 Z M 127 193 " clip-rule="nonzero"/></clipPath><clipPath id="437dfed131"><path d="M 721.117188 -235.535156 L 1433.515625 549.921875 L 746.25 1173.277344 L 33.847656 387.820312 Z M 721.117188 -235.535156 " clip-rule="nonzero"/></clipPath><clipPath id="4ded03e338"><path d="M 692.015625 -119.65625 L 1315.324219 567.574219 L 701.726562 1124.101562 L 78.417969 436.875 Z M 692.015625 -119.65625 " clip-rule="nonzero"/></clipPath><clipPath id="7a4b5b44f9"><path d="M 1021.8125 327.476562 L 801.746094 1002.882812 C 790.257812 1038.113281 760.894531 1064.570312 724.664062 1072.324219 C 688.429688 1080.085938 650.808594 1067.960938 625.917969 1040.511719 L 154.234375 520.464844 C 129.335938 493.015625 120.941406 454.386719 132.183594 419.082031 C 143.429688 383.777344 172.617188 357.121094 208.796875 349.128906 L 902.40625 195.828125 C 938.269531 187.898438 975.628906 199.796875 1000.304688 227.003906 C 1024.976562 254.210938 1033.1875 292.558594 1021.8125 327.476562 Z M 1021.8125 327.476562 " clip-rule="nonzero"/></clipPath></defs><g clip-path="url(#305d114b8a)"><path fill="#ffffff" d="M -155.34375 -235.535156 L 1462.113281 -235.535156 L 1462.113281 1342.527344 L -155.34375 1342.527344 Z M -155.34375 -235.535156 " fill-opacity="1" fill-rule="nonzero"/></g><g clip-path="url(#8c6e4d5849)"><g clip-path="url(#0c7ede775f)"><g clip-path="url(#898781d8b6)"><g clip-path="url(#c9df8dc3ec)"><g clip-path="url(#0ba89d91f2)"><path fill="#ffbd59" d="M 1461.789062 1017.238281 L 52.324219 1340.96875 L -156.425781 432.082031 L 1253.039062 108.359375 Z M 1461.789062 1017.238281 " fill-opacity="1" fill-rule="nonzero"/></g></g></g></g></g><g clip-path="url(#3d2948c117)"><g clip-path="url(#93591d1f3e)"><g clip-path="url(#f4ae8477d2)"><g clip-path="url(#a5480e5683)"><path stroke-linecap="butt" transform="matrix(-1.745751, 0.400964, -0.40096, -1.745771, 1461.788571, 1017.2427)" fill="none" stroke-linejoin="miter" d="M 175.002033 520.609689 L 631.751656 520.609436 C 646.55518 520.610632 659.574355 510.815481 663.669543 496.58994 L 799.824029 24.021236 C 801.461691 18.34256 800.335813 12.226066 796.78208 7.503092 C 793.222946 2.774402 787.659894 -0.000226018 781.748129 0.000168345 L 25.000483 -0.00145247 C 19.095094 0.000406395 13.523428 2.777399 9.971998 7.504127 C 6.415655 12.223014 5.290072 18.341511 6.927121 24.024972 L 143.080631 496.585943 C 147.175151 510.810696 160.19377 520.609642 175.002033 520.609689 Z M 175.002033 520.609689 " stroke="#000000" stroke-width="50" stroke-opacity="1" stroke-miterlimit="4"/></g></g></g></g><g clip-path="url(#ab41076e14)"><g clip-path="url(#f6efb6607f)"><g clip-path="url(#b2ad2bcdd7)"><g clip-path="url(#9737b4bb28)"><g clip-path="url(#22a89f9dc6)"><path fill="#ffde59" d="M 721.117188 -235.535156 L 1434.527344 551.042969 L 747.296875 1174.367188 L 33.886719 387.792969 Z M 721.117188 -235.535156 " fill-opacity="1" fill-rule="nonzero"/></g></g></g></g></g><g clip-path="url(#661e4c3389)"><g clip-path="url(#437dfed131)"><g clip-path="url(#4ded03e338)"><g clip-path="url(#7a4b5b44f9)"><path stroke-linecap="butt" transform="matrix(1.203371, 1.326784, -1.326769, 1.203385, 721.119883, -235.535918)" fill="none" stroke-linejoin="miter" d="M 345.598301 86.820242 L 542.354539 431.143354 C 552.617196 449.104473 552.541657 471.17327 542.159226 489.063765 C 531.77856 506.958806 512.654172 517.968529 491.967647 517.966312 L 100.003555 517.97033 C 79.3141 517.971344 60.191658 506.954457 49.808939 489.064036 C 39.427684 471.172001 39.351982 449.104405 49.616832 431.14554 L 246.373352 86.821609 C 256.545373 69.017027 275.477911 58.030557 295.983705 58.030782 C 316.486418 58.031157 335.425312 69.019944 345.598301 86.820242 Z M 345.598301 86.820242 " stroke="#000000" stroke-width="50" stroke-opacity="1" stroke-miterlimit="4"/></g></g></g></g></svg>