<svg xmlns="http://www.w3.org/2000/svg" xmlns:xlink="http://www.w3.org/1999/xlink" width="1807" zoomAndPan="magnify" viewBox="0 0 1355.25 500.249999" height="667" preserveAspectRatio="xMidYMid meet" version="1.0"><defs><g/><clipPath id="6c671ec120"><path d="M 0.640625 111.792969 L 373.785156 111.792969 L 373.785156 412.488281 L 0.640625 412.488281 Z M 0.640625 111.792969 " clip-rule="nonzero"/></clipPath><clipPath id="22f89767c5"><path d="M 16 116 L 369.722656 116 L 369.722656 409.902344 L 16 409.902344 Z M 16 116 " clip-rule="nonzero"/></clipPath><clipPath id="223a9a0db7"><path d="M 370.996094 330.371094 L 17.894531 411.472656 L -35.207031 180.28125 L 317.894531 99.183594 Z M 370.996094 330.371094 " clip-rule="nonzero"/></clipPath><clipPath id="39ad5cacb4"><path d="M 242.894531 116.410156 L 40.066406 162.992188 C 33.492188 164.503906 28.710938 170.183594 28.339844 176.917969 L 16.074219 400.65625 C 15.929688 403.347656 17.054688 405.949219 19.113281 407.683594 C 21.171875 409.417969 23.929688 410.082031 26.554688 409.480469 L 362.601562 332.296875 C 365.226562 331.695312 367.414062 329.894531 368.511719 327.433594 C 369.609375 324.972656 369.484375 322.144531 368.179688 319.785156 L 259.519531 123.820312 C 256.246094 117.921875 249.46875 114.898438 242.894531 116.410156 Z M 242.894531 116.410156 " clip-rule="nonzero"/></clipPath><clipPath id="e56ca0758b"><path d="M 370.996094 330.371094 L 17.894531 411.472656 L -35.207031 180.28125 L 317.894531 99.183594 Z M 370.996094 330.371094 " clip-rule="nonzero"/></clipPath><clipPath id="95030fbfa0"><path d="M 242.894531 116.410156 L 40.066406 162.992188 C 33.492188 164.503906 28.710938 170.183594 28.339844 176.917969 L 16.074219 400.65625 C 15.929688 403.347656 17.054688 405.949219 19.113281 407.683594 C 21.171875 409.417969 23.929688 410.082031 26.554688 409.480469 L 362.601562 332.296875 C 365.226562 331.695312 367.414062 329.894531 368.511719 327.433594 C 369.609375 324.972656 369.484375 322.144531 368.179688 319.785156 L 259.519531 123.820312 C 256.246094 117.921875 249.46875 114.898438 242.894531 116.410156 Z M 242.894531 116.410156 " clip-rule="nonzero"/></clipPath><clipPath id="e30bfcdd8d"><path d="M 16 116 L 369.832031 116 L 369.832031 409.902344 L 16 409.902344 Z M 16 116 " clip-rule="nonzero"/></clipPath><clipPath id="ba53fa0098"><path d="M 373.703125 329.746094 L 15.347656 412.054688 L -37.789062 180.699219 L 320.566406 98.390625 Z M 373.703125 329.746094 " clip-rule="nonzero"/></clipPath><clipPath id="63da0d19e7"><path d="M 373.699219 329.75 L 15.6875 411.976562 L -37.859375 178.847656 L 320.15625 96.617188 Z M 373.699219 329.75 " clip-rule="nonzero"/></clipPath><clipPath id="d780886047"><path d="M 242.894531 116.414062 L 40.070312 163 C 33.496094 164.507812 28.714844 170.183594 28.347656 176.917969 L 16.082031 400.65625 C 15.933594 403.347656 17.058594 405.949219 19.117188 407.679688 C 21.179688 409.417969 23.933594 410.082031 26.558594 409.480469 L 362.601562 332.296875 C 365.222656 331.695312 367.414062 329.894531 368.507812 327.433594 C 369.605469 324.972656 369.484375 322.144531 368.175781 319.785156 L 259.519531 123.824219 C 256.25 117.925781 249.46875 114.902344 242.894531 116.414062 Z M 242.894531 116.414062 " clip-rule="nonzero"/></clipPath><clipPath id="988cfb2613"><path d="M 34.125 120 L 263.402344 120 L 263.402344 344.824219 L 34.125 344.824219 Z M 34.125 120 " clip-rule="nonzero"/></clipPath><clipPath id="78dba767a6"><path d="M 178.570312 42.082031 L 334.640625 214.164062 L 178.953125 355.375 L 22.878906 183.292969 Z M 178.570312 42.082031 " clip-rule="nonzero"/></clipPath><clipPath id="d39b5ade85"><path d="M 261.789062 154.296875 L 205.808594 326.101562 C 202.886719 335.0625 195.417969 341.792969 186.203125 343.765625 C 176.984375 345.738281 167.417969 342.65625 161.082031 335.671875 L 41.101562 203.386719 C 34.769531 196.40625 32.632812 186.578125 35.492188 177.597656 C 38.351562 168.617188 45.777344 161.839844 54.980469 159.804688 L 231.414062 120.808594 C 240.539062 118.792969 250.039062 121.820312 256.316406 128.742188 C 262.59375 135.660156 264.679688 145.414062 261.789062 154.296875 Z M 261.789062 154.296875 " clip-rule="nonzero"/></clipPath><clipPath id="7a8917e71f"><path d="M 178.570312 42.082031 L 334.640625 214.164062 L 178.953125 355.375 L 22.878906 183.292969 Z M 178.570312 42.082031 " clip-rule="nonzero"/></clipPath><clipPath id="f978da0923"><path d="M 261.789062 154.296875 L 205.808594 326.101562 C 202.886719 335.0625 195.417969 341.792969 186.203125 343.765625 C 176.984375 345.738281 167.417969 342.65625 161.082031 335.671875 L 41.101562 203.386719 C 34.769531 196.40625 32.632812 186.578125 35.492188 177.597656 C 38.351562 168.617188 45.777344 161.839844 54.980469 159.804688 L 231.414062 120.808594 C 240.539062 118.792969 250.039062 121.820312 256.316406 128.742188 C 262.59375 135.660156 264.679688 145.414062 261.789062 154.296875 Z M 261.789062 154.296875 " clip-rule="nonzero"/></clipPath><clipPath id="c6b862b210"><path d="M 34.125 120 L 263.402344 120 L 263.402344 344.824219 L 34.125 344.824219 Z M 34.125 120 " clip-rule="nonzero"/></clipPath><clipPath id="957f7317c3"><path d="M 185.300781 11.085938 L 366.511719 210.878906 L 191.695312 369.4375 L 10.484375 169.644531 Z M 185.300781 11.085938 " clip-rule="nonzero"/></clipPath><clipPath id="9696ac894d"><path d="M 177.898438 40.558594 L 336.449219 215.367188 L 180.371094 356.929688 L 21.820312 182.121094 Z M 177.898438 40.558594 " clip-rule="nonzero"/></clipPath><clipPath id="d74e2b46c1"><path d="M 261.789062 154.296875 L 205.808594 326.097656 C 202.886719 335.058594 195.417969 341.789062 186.203125 343.757812 C 176.984375 345.734375 167.417969 342.648438 161.085938 335.667969 L 41.105469 203.382812 C 34.773438 196.402344 32.636719 186.578125 35.496094 177.597656 C 38.355469 168.617188 45.78125 161.835938 54.984375 159.804688 L 231.414062 120.808594 C 240.539062 118.792969 250.039062 121.816406 256.316406 128.738281 C 262.59375 135.660156 264.679688 145.414062 261.789062 154.296875 Z M 261.789062 154.296875 " clip-rule="nonzero"/></clipPath></defs><g clip-path="url(#6c671ec120)"><path fill="#ffffff" d="M -37.640625 11.085938 L 373.785156 11.085938 L 373.785156 412.488281 L -37.640625 412.488281 Z M -37.640625 11.085938 " fill-opacity="1" fill-rule="nonzero"/></g><g clip-path="url(#22f89767c5)"><g clip-path="url(#223a9a0db7)"><g clip-path="url(#39ad5cacb4)"><g clip-path="url(#e56ca0758b)"><g clip-path="url(#95030fbfa0)"><path fill="#ffbd59" d="M 373.703125 329.746094 L 15.183594 412.09375 L -37.914062 180.902344 L 320.605469 98.558594 Z M 373.703125 329.746094 " fill-opacity="1" fill-rule="nonzero"/></g></g></g></g></g><g clip-path="url(#e30bfcdd8d)"><g clip-path="url(#ba53fa0098)"><g clip-path="url(#63da0d19e7)"><g clip-path="url(#d780886047)"><path stroke-linecap="butt" transform="matrix(-0.44406, 0.101992, -0.101991, -0.444064, 373.702985, 329.748344)" fill="none" stroke-linejoin="miter" d="M 175.002147 520.606893 L 631.750367 520.612358 C 646.556024 520.608604 659.572132 510.816674 663.666179 496.591675 L 799.826127 24.022635 C 801.464018 18.346772 800.335669 12.229092 796.784217 7.507721 C 793.226327 2.776075 787.661683 0.00258282 781.750983 -0.000297366 L 24.999211 0.00265109 C 19.096867 0.00169006 13.524494 2.777067 9.97579 7.503858 C 6.41873 12.228729 5.288306 18.337822 6.928367 24.027643 L 143.080115 496.588008 C 147.176091 510.811601 160.19649 520.610647 175.002147 520.606893 Z M 175.002147 520.606893 " stroke="#000000" stroke-width="50" stroke-opacity="1" stroke-miterlimit="4"/></g></g></g></g><g clip-path="url(#988cfb2613)"><g clip-path="url(#78dba767a6)"><g clip-path="url(#d39b5ade85)"><g clip-path="url(#7a8917e71f)"><g clip-path="url(#f978da0923)"><path fill="#ffde59" d="M 185.300781 11.085938 L 366.769531 211.164062 L 191.960938 369.714844 L 10.492188 169.636719 Z M 185.300781 11.085938 " fill-opacity="1" fill-rule="nonzero"/></g></g></g></g></g><g clip-path="url(#c6b862b210)"><g clip-path="url(#957f7317c3)"><g clip-path="url(#9696ac894d)"><g clip-path="url(#d74e2b46c1)"><path stroke-linecap="butt" transform="matrix(0.306097, 0.337488, -0.337485, 0.3061, 185.301889, 11.084315)" fill="none" stroke-linejoin="miter" d="M 345.602325 86.820522 L 542.354985 431.149302 C 552.620201 449.106002 552.543385 471.178508 542.156556 489.06216 C 531.776668 506.963682 512.654043 517.965735 491.96921 517.96712 L 100.000047 517.966854 C 79.315215 517.968239 60.193347 506.956122 49.809981 489.065879 C 39.426615 471.175637 39.351758 449.104459 49.619702 431.147703 L 246.371986 86.823182 C 256.550135 69.016474 275.473236 58.030223 295.982175 58.031348 C 316.491115 58.032473 335.423797 69.02347 345.602325 86.820522 Z M 345.602325 86.820522 " stroke="#000000" stroke-width="50" stroke-opacity="1" stroke-miterlimit="4"/></g></g></g></g><g fill="#000000" fill-opacity="1"><g transform="translate(395.900962, 343.308375)"><g><path d="M 72.046875 3.171875 C 58.859375 3.171875 46.890625 0 36.140625 -6.34375 C 25.234375 -12.863281 16.441406 -21.660156 9.765625 -32.734375 C 3.253906 -43.640625 0 -55.6875 0 -68.875 C 0 -81.738281 3.175781 -93.785156 9.53125 -105.015625 C 15.875 -115.765625 24.742188 -124.554688 36.140625 -131.390625 C 47.054688 -137.910156 59.023438 -141.171875 72.046875 -141.171875 C 81.648438 -141.171875 90.6875 -139.296875 99.15625 -135.546875 C 105.019531 -133.265625 110.640625 -130.09375 116.015625 -126.03125 L 116.015625 -212 L 144.59375 -212 L 144.59375 0 L 116.015625 0 L 116.015625 -11.484375 C 110.472656 -7.578125 104.851562 -4.484375 99.15625 -2.203125 C 90.851562 1.378906 81.816406 3.171875 72.046875 3.171875 Z M 72.046875 -25.640625 C 80.023438 -25.640625 87.191406 -27.515625 93.546875 -31.265625 C 100.703125 -35.660156 106.070312 -40.953125 109.65625 -47.140625 C 113.5625 -53.972656 115.515625 -61.21875 115.515625 -68.875 C 115.515625 -76.53125 113.484375 -83.691406 109.421875 -90.359375 C 105.179688 -97.523438 99.96875 -102.898438 93.78125 -106.484375 C 87.269531 -110.390625 80.023438 -112.34375 72.046875 -112.34375 C 64.390625 -112.34375 57.226562 -110.390625 50.5625 -106.484375 C 43.71875 -102.410156 38.34375 -97.117188 34.4375 -90.609375 C 30.6875 -84.097656 28.8125 -76.851562 28.8125 -68.875 C 28.8125 -61.382812 30.6875 -54.140625 34.4375 -47.140625 C 38.507812 -40.296875 43.882812 -35.003906 50.5625 -31.265625 C 57.226562 -27.515625 64.390625 -25.640625 72.046875 -25.640625 Z M 72.046875 -25.640625 "/></g></g></g><g fill="#000000" fill-opacity="1"><g transform="translate(550.259652, 343.308375)"><g><path d="M 71.8125 3.171875 C 51.945312 3.171875 35.007812 -3.910156 21 -18.078125 C 7 -32.078125 0 -48.925781 0 -68.625 C 0 -88.488281 7.082031 -105.503906 21.25 -119.671875 C 35.25 -133.835938 52.101562 -140.921875 71.8125 -140.921875 C 91.664062 -140.921875 108.675781 -133.835938 122.84375 -119.671875 C 136.851562 -105.503906 143.859375 -88.488281 143.859375 -68.625 C 143.859375 -48.757812 136.851562 -31.828125 122.84375 -17.828125 C 108.84375 -3.828125 91.832031 3.171875 71.8125 3.171875 Z M 71.8125 -25.640625 C 83.851562 -25.640625 94.109375 -29.875 102.578125 -38.34375 C 111.046875 -46.644531 115.28125 -56.738281 115.28125 -68.625 C 115.28125 -80.507812 111.046875 -90.769531 102.578125 -99.40625 C 94.109375 -107.875 83.851562 -112.109375 71.8125 -112.109375 C 59.757812 -112.109375 49.582031 -107.953125 41.28125 -99.640625 C 32.96875 -91.179688 28.8125 -80.84375 28.8125 -68.625 C 28.8125 -56.738281 32.96875 -46.644531 41.28125 -38.34375 C 49.582031 -29.875 59.757812 -25.640625 71.8125 -25.640625 Z M 71.8125 -25.640625 "/></g></g></g><g fill="#000000" fill-opacity="1"><g transform="translate(703.885627, 343.308375)"><g><path d="M 72.78125 75.46875 C 60.894531 75.46875 49.09375 72.289062 37.375 65.9375 C 26.300781 59.59375 17.503906 50.882812 10.984375 39.8125 C 3.828125 27.757812 0.65625 14.488281 1.46875 0 L 30.046875 0 C 29.390625 8.789062 31.257812 17.175781 35.65625 25.15625 C 39.726562 31.988281 44.941406 37.195312 51.296875 40.78125 C 58.128906 44.695312 65.289062 46.65625 72.78125 46.65625 C 80.269531 46.65625 87.351562 44.695312 94.03125 40.78125 C 100.707031 36.875 105.914062 31.664062 109.65625 25.15625 C 113.5625 18.800781 115.515625 11.71875 115.515625 3.90625 L 115.515625 -11.484375 C 110.148438 -7.410156 104.695312 -4.316406 99.15625 -2.203125 C 90.363281 1.378906 81.25 3.171875 71.8125 3.171875 C 59.4375 3.171875 47.546875 -0.0820312 36.140625 -6.59375 C 25.066406 -12.945312 16.195312 -21.738281 9.53125 -32.96875 C 3.175781 -43.71875 0 -55.6875 0 -68.875 C 0 -81.894531 3.175781 -93.941406 9.53125 -105.015625 C 16.363281 -116.410156 25.15625 -125.125 35.90625 -131.15625 C 46.8125 -137.664062 58.78125 -140.921875 71.8125 -140.921875 C 80.601562 -140.921875 89.71875 -139.128906 99.15625 -135.546875 C 104.851562 -133.109375 110.304688 -129.9375 115.515625 -126.03125 L 115.515625 -138.71875 L 144.34375 -138.71875 L 144.34375 3.90625 C 144.34375 16.601562 141.164062 28.488281 134.8125 39.5625 C 128.46875 50.632812 119.757812 59.347656 108.6875 65.703125 C 97.78125 72.210938 85.8125 75.46875 72.78125 75.46875 Z M 71.8125 -25.640625 C 79.625 -25.640625 86.867188 -27.515625 93.546875 -31.265625 C 100.546875 -35.335938 105.835938 -40.628906 109.421875 -47.140625 C 113.328125 -54.140625 115.28125 -61.382812 115.28125 -68.875 C 115.28125 -76.6875 113.328125 -83.847656 109.421875 -90.359375 C 105.515625 -97.035156 100.222656 -102.328125 93.546875 -106.234375 C 86.867188 -110.148438 79.625 -112.109375 71.8125 -112.109375 C 64.3125 -112.109375 57.226562 -110.148438 50.5625 -106.234375 C 43.71875 -102.492188 38.34375 -97.285156 34.4375 -90.609375 C 30.6875 -84.097656 28.8125 -76.851562 28.8125 -68.875 C 28.8125 -61.21875 30.6875 -53.972656 34.4375 -47.140625 C 38.507812 -40.460938 43.800781 -35.171875 50.3125 -31.265625 C 56.988281 -27.515625 64.15625 -25.640625 71.8125 -25.640625 Z M 71.8125 -25.640625 "/></g></g></g><g fill="#000000" fill-opacity="1"><g transform="translate(858.000071, 343.308375)"><g><path d="M 71.8125 3.171875 C 59.101562 3.171875 47.132812 0 35.90625 -6.34375 C 24.664062 -12.863281 15.875 -21.660156 9.53125 -32.734375 C 3.175781 -43.796875 0 -55.757812 0 -68.625 C 0 -81.488281 3.175781 -93.539062 9.53125 -104.78125 C 16.039062 -115.851562 24.832031 -124.644531 35.90625 -131.15625 C 46.976562 -137.664062 58.945312 -140.921875 71.8125 -140.921875 C 83.53125 -140.921875 94.351562 -138.316406 104.28125 -133.109375 C 114.21875 -128.054688 122.6875 -120.972656 129.6875 -111.859375 C 136.53125 -102.253906 140.925781 -92.160156 142.875 -81.578125 C 144.832031 -71.640625 144.753906 -63.085938 142.640625 -55.921875 L 30.78125 -55.921875 C 33.539062 -47.617188 38.175781 -40.78125 44.6875 -35.40625 C 52.664062 -28.894531 61.707031 -25.640625 71.8125 -25.640625 C 77.988281 -25.640625 83.601562 -26.78125 88.65625 -29.0625 C 94.675781 -31.507812 99.5625 -34.929688 103.3125 -39.328125 L 137.75 -39.328125 C 131.394531 -25.484375 121.546875 -14.570312 108.203125 -6.59375 C 97.285156 -0.0820312 85.15625 3.171875 71.8125 3.171875 Z M 32 -85 L 112.109375 -85 C 109.171875 -92.320312 104.609375 -98.34375 98.421875 -103.0625 C 90.441406 -108.925781 81.570312 -111.859375 71.8125 -111.859375 C 62.039062 -111.859375 53.242188 -108.925781 45.421875 -103.0625 C 39.078125 -97.851562 34.601562 -91.832031 32 -85 Z M 32 -85 "/></g></g></g><g fill="#000000" fill-opacity="1"><g transform="translate(1011.626031, 343.308375)"><g><path d="M 71.8125 2.9375 C 59.101562 2.9375 47.132812 -0.238281 35.90625 -6.59375 C 24.988281 -12.78125 16.195312 -21.570312 9.53125 -32.96875 C 3.175781 -43.875 0 -55.84375 0 -68.875 C 0 -81.738281 3.175781 -93.785156 9.53125 -105.015625 C 15.875 -116.085938 24.664062 -124.878906 35.90625 -131.390625 C 46.8125 -137.910156 58.78125 -141.171875 71.8125 -141.171875 C 81.570312 -141.171875 90.6875 -139.296875 99.15625 -135.546875 C 104.851562 -133.265625 110.304688 -130.171875 115.515625 -126.265625 L 115.515625 -138.96875 L 144.34375 -138.96875 L 144.34375 0 L 115.515625 0 L 115.515625 -11.71875 C 110.304688 -7.8125 104.851562 -4.71875 99.15625 -2.4375 C 91.019531 1.144531 81.90625 2.9375 71.8125 2.9375 Z M 71.8125 -25.890625 C 79.625 -25.890625 86.867188 -27.757812 93.546875 -31.5 C 100.546875 -35.738281 105.835938 -40.953125 109.421875 -47.140625 C 113.328125 -53.972656 115.28125 -61.21875 115.28125 -68.875 C 115.28125 -77.007812 113.328125 -84.253906 109.421875 -90.609375 C 105.179688 -97.453125 99.890625 -102.742188 93.546875 -106.484375 C 86.867188 -110.390625 79.625 -112.34375 71.8125 -112.34375 C 63.5 -112.34375 56.332031 -110.472656 50.3125 -106.734375 C 43.957031 -103.304688 38.664062 -98.015625 34.4375 -90.859375 C 30.6875 -84.179688 28.8125 -76.851562 28.8125 -68.875 C 28.8125 -61.550781 30.6875 -54.382812 34.4375 -47.375 C 38.507812 -40.707031 43.800781 -35.414062 50.3125 -31.5 C 56.988281 -27.757812 64.15625 -25.890625 71.8125 -25.890625 Z M 71.8125 -25.890625 "/></g></g></g><g fill="#000000" fill-opacity="1"><g transform="translate(1165.74043, 343.308375)"><g><path d="M 0 0 L 0 -138.96875 L 28.8125 -138.96875 L 28.8125 -125.78125 C 34.03125 -130.007812 39.566406 -133.265625 45.421875 -135.546875 C 55.359375 -139.785156 66.023438 -141.660156 77.421875 -141.171875 L 77.421875 -112.109375 C 67.492188 -112.753906 58.785156 -110.796875 51.296875 -106.234375 C 44.453125 -102.171875 38.914062 -96.71875 34.6875 -89.875 C 30.769531 -83.363281 28.8125 -75.875 28.8125 -67.40625 L 28.8125 0 Z M 0 0 "/></g></g></g></svg>